<svg xmlns="http://www.w3.org/2000/svg" version="1.1">
  <path fill="#1875c6" d="M8.125,29.178l1.311-1.5l1.315,1.5l1.311-1.5l1.311,1.5l1.315-1.5l1.311,1.5l1.312-1.5l1.314,1.5l1.312-1.5l1.312,1.5l1.314-1.5l1.312,1.5v-8.521H8.125V29.178zM23.375,17.156c-0.354,0-5.833-0.166-5.833-2.917s0.75-8.834,0.75-8.834S18.542,2.822,16,2.822s-2.292,2.583-2.292,2.583s0.75,6.083,0.75,8.834s-5.479,2.917-5.833,2.917c-0.5,0-0.5,1.166-0.5,1.166v1.271h15.75v-1.271C23.875,18.322,23.875,17.156,23.375,17.156zM16,8.031c-0.621,0-1.125-2.191-1.125-2.812S15.379,4.094,16,4.094s1.125,0.504,1.125,1.125S16.621,8.031,16,8.031z" />
</svg>
