<svg version="1.1" xmlns="http://www.w3.org/2000/svg" width="50px" height="50px" viewBox="0 0 500 500">
	<path fill="#fff" d="M124,369V256h38v75h176v-76h38v114"/>
	<path fill="#fff" d="M336.336,215.497L250,291.661l-86.664-76.164L212,221V90h75v131L336.336,215.497z"/>
	<path fill="#fff" d="M250,0C111.929,0,0,111.929,0,250s111.929,250,250,250s250-111.929,250-250S388.071,0,250,0z M250,467.5 c-120.118,0-217.5-97.379-217.5-217.5c0-120.121,97.382-217.5,217.5-217.5S467.5,129.879,467.5,250 C467.5,370.121,370.118,467.5,250,467.5z"/>
</svg>
