<svg xmlns="http://www.w3.org/2000/svg" version="1.1">
  <path fill="#1875c6" d="M23.024,5.673c-1.744-1.694-3.625-3.051-5.168-3.236c-0.084-0.012-0.171-0.019-0.263-0.021H7.438c-0.162,0-0.322,0.063-0.436,0.18C6.889,2.71,6.822,2.87,6.822,3.033v25.75c0,0.162,0.063,0.317,0.18,0.435c0.117,0.116,0.271,0.179,0.436,0.179h18.364c0.162,0,0.317-0.062,0.434-0.179c0.117-0.117,0.182-0.272,0.182-0.435V11.648C26.382,9.659,24.824,7.49,23.024,5.673zM25.184,28.164H8.052V3.646h9.542v0.002c0.416-0.025,0.775,0.386,1.05,1.326c0.25,0.895,0.313,2.062,0.312,2.871c0.002,0.593-0.027,0.991-0.027,0.991l-0.049,0.652l0.656,0.007c0.003,0,1.516,0.018,3,0.355c1.426,0.308,2.541,0.922,2.645,1.617c0.004,0.062,0.005,0.124,0.004,0.182V28.164z" />
</svg>
